<svg width="32" height="32" viewBox="0 0 32 32" fill="none" xmlns="http://www.w3.org/2000/svg">
  <!-- DNA helix representing genetic algorithm -->
  <path d="M8 4C8 4 12 8 16 8C20 8 24 4 24 4" stroke="#4F46E5" stroke-width="2" fill="none"/>
  <path d="M8 12C8 12 12 8 16 8C20 8 24 12 24 12" stroke="#7C3AED" stroke-width="2" fill="none"/>
  <path d="M8 12C8 12 12 16 16 16C20 16 24 12 24 12" stroke="#4F46E5" stroke-width="2" fill="none"/>
  <path d="M8 20C8 20 12 16 16 16C20 16 24 20 24 20" stroke="#7C3AED" stroke-width="2" fill="none"/>
  <path d="M8 20C8 20 12 24 16 24C20 24 24 20 24 20" stroke="#4F46E5" stroke-width="2" fill="none"/>
  <path d="M8 28C8 28 12 24 16 24C20 24 24 28 24 28" stroke="#7C3AED" stroke-width="2" fill="none"/>
  
  <!-- Connection lines -->
  <line x1="10" y1="6" x2="14" y2="10" stroke="#10B981" stroke-width="1"/>
  <line x1="18" y1="10" x2="22" y2="6" stroke="#10B981" stroke-width="1"/>
  <line x1="10" y1="14" x2="14" y2="18" stroke="#10B981" stroke-width="1"/>
  <line x1="18" y1="18" x2="22" y2="14" stroke="#10B981" stroke-width="1"/>
  <line x1="10" y1="22" x2="14" y2="26" stroke="#10B981" stroke-width="1"/>
  <line x1="18" y1="26" x2="22" y2="22" stroke="#10B981" stroke-width="1"/>
  
  <!-- Cities as dots -->
  <circle cx="8" cy="6" r="2" fill="#EF4444"/>
  <circle cx="24" cy="6" r="2" fill="#EF4444"/>
  <circle cx="8" cy="14" r="2" fill="#EF4444"/>
  <circle cx="24" cy="14" r="2" fill="#EF4444"/>
  <circle cx="8" cy="22" r="2" fill="#EF4444"/>
  <circle cx="24" cy="22" r="2" fill="#EF4444"/>
  <circle cx="16" cy="8" r="2" fill="#EF4444"/>
  <circle cx="16" cy="16" r="2" fill="#EF4444"/>
  <circle cx="16" cy="24" r="2" fill="#EF4444"/>
</svg>